<mxfile host="app.diagrams.net" modified="2023-10-09T14:40:01.191Z" agent="Mozilla/5.0 (Windows NT 10.0; Win64; x64) AppleWebKit/537.36 (KHTML, like Gecko) Chrome/117.0.0.0 Safari/537.36" etag="l8cRpePPirmsqoOl5WzQ" version="22.0.4" type="github">
  <diagram name="PÃ¡gina-1" id="5a1SR1V8LrrL8rQgnsNq">
    <mxGraphModel dx="2954" dy="1110" grid="1" gridSize="10" guides="1" tooltips="1" connect="1" arrows="1" fold="1" page="1" pageScale="1" pageWidth="827" pageHeight="1169" math="0" shadow="0">
      <root>
        <mxCell id="0" />
        <mxCell id="1" parent="0" />
        <mxCell id="7nAq-e-2bU5t_ff8dgFJ-6" value="" style="ellipse;whiteSpace=wrap;html=1;aspect=fixed;" vertex="1" parent="1">
          <mxGeometry x="182" y="310" width="400" height="400" as="geometry" />
        </mxCell>
        <mxCell id="7nAq-e-2bU5t_ff8dgFJ-5" value="" style="ellipse;whiteSpace=wrap;html=1;aspect=fixed;" vertex="1" parent="1">
          <mxGeometry x="240" y="10" width="284" height="284" as="geometry" />
        </mxCell>
        <mxCell id="7nAq-e-2bU5t_ff8dgFJ-2" value="" style="fontColor=#0066CC;verticalAlign=top;verticalLabelPosition=bottom;labelPosition=center;align=center;html=1;outlineConnect=0;fillColor=#CCCCCC;strokeColor=#6881B3;gradientColor=none;gradientDirection=north;strokeWidth=2;shape=mxgraph.networks.pc;" vertex="1" parent="1">
          <mxGeometry x="330" y="460" width="100" height="70" as="geometry" />
        </mxCell>
        <mxCell id="7nAq-e-2bU5t_ff8dgFJ-1" value="" style="fontColor=#0066CC;verticalAlign=top;verticalLabelPosition=bottom;labelPosition=center;align=center;html=1;outlineConnect=0;fillColor=#CCCCCC;strokeColor=#6881B3;gradientColor=none;gradientDirection=north;strokeWidth=2;shape=mxgraph.networks.pc;" vertex="1" parent="1">
          <mxGeometry x="332" y="117" width="100" height="70" as="geometry" />
        </mxCell>
        <mxCell id="7nAq-e-2bU5t_ff8dgFJ-3" value="" style="image;html=1;image=img/lib/clip_art/computers/Network_128x128.png" vertex="1" parent="1">
          <mxGeometry x="342" y="680" width="80" height="80" as="geometry" />
        </mxCell>
        <mxCell id="7nAq-e-2bU5t_ff8dgFJ-7" value="&lt;font style=&quot;font-size: 17px;&quot;&gt;Private Network&lt;/font&gt;" style="text;html=1;align=center;verticalAlign=middle;resizable=0;points=[];autosize=1;strokeColor=none;fillColor=none;strokeWidth=3;" vertex="1" parent="1">
          <mxGeometry x="520" y="130" width="140" height="30" as="geometry" />
        </mxCell>
        <mxCell id="7nAq-e-2bU5t_ff8dgFJ-8" value="&lt;font style=&quot;font-size: 17px;&quot;&gt;Public Network&lt;/font&gt;" style="text;html=1;align=center;verticalAlign=middle;resizable=0;points=[];autosize=1;strokeColor=none;fillColor=none;" vertex="1" parent="1">
          <mxGeometry x="580" y="460" width="140" height="30" as="geometry" />
        </mxCell>
        <mxCell id="7nAq-e-2bU5t_ff8dgFJ-9" value="" style="ellipse;shape=cloud;whiteSpace=wrap;html=1;" vertex="1" parent="1">
          <mxGeometry x="322" y="890" width="120" height="80" as="geometry" />
        </mxCell>
        <mxCell id="7nAq-e-2bU5t_ff8dgFJ-10" value="&lt;font style=&quot;font-size: 17px;&quot;&gt;Internet&lt;/font&gt;" style="text;html=1;align=center;verticalAlign=middle;resizable=0;points=[];autosize=1;strokeColor=none;fillColor=none;" vertex="1" parent="1">
          <mxGeometry x="342" y="970" width="80" height="30" as="geometry" />
        </mxCell>
        <mxCell id="7nAq-e-2bU5t_ff8dgFJ-11" value="" style="endArrow=none;html=1;rounded=0;" edge="1" parent="1">
          <mxGeometry width="50" height="50" relative="1" as="geometry">
            <mxPoint x="380" y="880" as="sourcePoint" />
            <mxPoint x="380" y="770" as="targetPoint" />
          </mxGeometry>
        </mxCell>
        <mxCell id="7nAq-e-2bU5t_ff8dgFJ-12" value="" style="endArrow=none;html=1;rounded=0;" edge="1" parent="1" source="7nAq-e-2bU5t_ff8dgFJ-6" target="7nAq-e-2bU5t_ff8dgFJ-5">
          <mxGeometry width="50" height="50" relative="1" as="geometry">
            <mxPoint x="390" y="580" as="sourcePoint" />
            <mxPoint x="440" y="530" as="targetPoint" />
          </mxGeometry>
        </mxCell>
      </root>
    </mxGraphModel>
  </diagram>
</mxfile>
